#!OML:ASF F:\VICON\USERDATA\INSTALL\rory3\rory3.ASF
:FULLY-SPECIFIED
:DEGREES
1021
root -3.52334 17.8342 -8.95802 15.0136 4.16382 5.38127
lowerback 12.2571 -0.15467 -3.46049
upperback 5.21254 -0.399938 6.72897
thorax -1.2962 -0.308699 9.18874
lowerneck -7.71835 -11.8823 -12.1198
upperneck 27.5654 -17.0103 8.64586
head 12.172 -7.92158 2.86969
rclavicle -3.18055e-015 -6.36111e-014
rhumerus 5.047 -16.8082 -82.0392
rradius 30.0098
rwrist -15.7823
rhand -29.2729 -19.2326
rfingers 7.12502
rthumb -2.61524 -49.1963
lclavicle -3.18055e-015 -6.36111e-014
lhumerus -19.2167 -43.4833 97.586
lradius 66.5627
lwrist 60.3171
lhand -14.5698 48.4894
lfingers 7.12502
lthumb 11.5796 -1001.85
rfemur -35.3783 -7.53222 7.36242
rtibia 46.2636
rfoot -15.966 -11.8586
rtoes 4.80086
lfemur -27.4534 1.60545 -25.674
ltibia 24.5355
lfoot -8.1852 1.51261
ltoes -11.6755
1022
root -3.5747 17.8352 -8.97201 14.7638 5.05519 5.74805
lowerback 12.2111 -0.198419 -2.94391
upperback 5.60116 -0.411983 6.70663
thorax -0.866864 -0.330727 8.85308
lowerneck -8.03251 -12.2208 -11.978
upperneck 27.27 -17.5121 8.86026
head 12.1901 -8.09512 2.81899
rclavicle 1.43125e-014 7.95139e-015
rhumerus 5.64245 -15.5718 -83.1332
rradius 29.8706
rwrist -16.1519
rhand -28.118 -19.3963
rfingers 7.12502
rthumb -1.4999 -49.3708
lclavicle 1.43125e-014 7.95139e-015
lhumerus -19.0048 -42.4424 96.834
lradius 65.671
lwrist 61.3379
lhand -16.1663 48.7064
lfingers 7.12502
lthumb 10.0397 -1001.55
rfemur -34.317 -8.08939 7.14029
rtibia 46.0612
rfoot -16.9283 -11.7517
rtoes 2.12586
lfemur -27.1113 1.12702 -25.7477
ltibia 24.3091
lfoot -7.92846 1.12381
ltoes -11.7471
1023
root -3.62907 17.8303 -8.98893 14.707 5.63303 6.15203
lowerback 12.1319 -0.217482 -2.75646
upperback 5.8213 -0.421529 6.77588
thorax -0.591184 -0.346691 8.81611
lowerneck -8.17369 -12.421 -12.1429
upperneck 27.0827 -17.7778 9.03342
head 12.2162 -8.20362 2.84963
rclavicle -1.59028e-014 -2.8625e-014
rhumerus 5.97449 -13.4749 -83.9206
rradius 29.8679
rwrist -16.9763
rhand -26.9874 -19.3537
rfingers 7.12502
rthumb -0.407923 -49.3331
lclavicle -1.59028e-014 -2.8625e-014
lhumerus -19.221 -41.0127 96.4586
lradius 64.7281
lwrist 63.0819
lhand -17.5847 48.5959
lfingers 7.12502
lthumb 8.67114 -1001.6
rfemur -33.6188 -8.52243 6.90063
rtibia 45.8389
rfoot -17.5872 -11.6743
rtoes -1.89667
lfemur -26.9985 0.874828 -25.9415
ltibia 24.0947
lfoot -7.69383 0.814012
ltoes -11.5947
1024
root -3.68923 17.8131 -9.00553 14.7195 5.80206 6.37636
lowerback 12.1372 -0.0385307 -2.60683
upperback 5.87677 -0.167826 6.86573
thorax -0.580185 -0.218614 8.79442
lowerneck -8.02971 -12.6376 -12.3266
upperneck 26.8837 -18.0964 9.22698
head 12.1928 -8.34676 2.8991
rclavicle 2.06736e-014 6.99722e-014
rhumerus 5.99247 -11.4761 -84.6219
rradius 29.7902
rwrist -17.4212
rhand -25.8015 -19.4282
rfingers 7.12502
rthumb 0.737427 -49.4067
lclavicle 2.06736e-014 6.99722e-014
lhumerus -19.8872 -40.006 96.3933
lradius 63.6884
lwrist 65.1636
lhand -19.5816 46.9514
lfingers 7.12502
lthumb 6.74375 -1003.18
rfemur -33.2406 -8.55908 6.83331
rtibia 45.5696
rfoot -17.8565 -11.5307
rtoes -4.14978
lfemur -26.9897 0.975207 -26.0602
ltibia 23.8853
lfoot -7.51792 0.713441
ltoes -13.87
1025
root -3.75212 17.7872 -9.02247 14.8566 5.86645 6.46623
lowerback 12.0159 0.197357 -2.3904
upperback 5.91405 0.167156 6.97413
thorax -0.533513 -0.0493209 8.74102
lowerneck -7.93531 -12.8569 -12.2324
upperneck 26.6589 -18.4085 9.24587
head 12.1173 -8.47856 2.84269
rclavicle -1.59028e-015 -3.02153e-014
rhumerus 6.05798 -9.71257 -85.3841
rradius 29.708
rwrist -17.6902
rhand -24.1326 -19.2699
rfingers 7.12502
rthumb 2.3493 -49.2367
lclavicle -1.59028e-015 -3.02153e-014
lhumerus -20.5055 -38.8462 96.1713
lradius 63.0058
lwrist 66.6723
lhand -22.4209 46.2059
lfingers 7.12502
lthumb 4.00234 -1003.85
rfemur -33.0908 -8.35096 6.83167
rtibia 45.2145
rfoot -18.0634 -10.8548
rtoes -3.86122
lfemur -27.1304 1.18181 -26.086
ltibia 23.7016
lfoot -7.30191 0.727584
ltoes -17.717
1026
root -3.81744 17.7761 -9.04155 15.0083 5.94783 6.62157
lowerback 11.938 0.42608 -2.27632
upperback 5.94966 0.483255 7.12874
thorax -0.507275 0.108646 8.80313
lowerneck -7.87666 -13.0992 -12.2047
upperneck 26.4194 -18.7054 9.16112
head 12.0368 -8.61987 2.7588
rclavicle -9.54166e-015 -3.81667e-014
rhumerus 6.09736 -7.52958 -85.9142
rradius 29.8949
rwrist -18.0858
rhand -22.1414 -19.7544
rfingers 7.12502
rthumb 4.27223 -49.6913
lclavicle -9.54166e-015 -3.81667e-014
lhumerus -21.0517 -37.2867 95.9154
lradius 62.769
lwrist 67.925
lhand -24.4384 49.2228
lfingers 7.12502
lthumb 2.05394 -1000.81
rfemur -32.8974 -8.04284 6.68392
rtibia 44.756
rfoot -18.4769 -9.83549
rtoes -1.36672
lfemur -27.2679 1.20587 -26.0916
ltibia 23.5171
lfoot -7.04849 0.832555
ltoes -18.0605
1027
root -3.88484 17.7751 -9.05777 15.0642 6.301 6.82866
lowerback 11.9701 0.530663 -2.10596
upperback 5.99647 0.643078 7.28546
thorax -0.502143 0.189904 8.8557
lowerneck -7.95178 -13.3345 -12.3395
upperneck 26.3551 -19.005 9.18578
head 12.0845 -8.7555 2.7266
rclavicle 2.54444e-014 3.81667e-014
rhumerus 6.08076 -4.90346 -86.3452
rradius 30.3381
rwrist -18.6015
rhand -20.1689 -20.8461
rfingers 7.12502
rthumb 6.17677 -50.7361
lclavicle 2.54444e-014 3.81667e-014
lhumerus -21.2944 -35.3738 95.4192
lradius 62.2811
lwrist 69.256
lhand -26.5184 50.829
lfingers 7.12502
lthumb 0.0450527 -999.191
rfemur -32.4646 -7.75694 6.5214
rtibia 44.1991
rfoot -19.1015 -9.29291
rtoes -0.639772
lfemur -27.2945 0.942847 -26.0129
ltibia 23.3392
lfoot -6.87242 0.856619
ltoes -15.6569
1028
root -3.94938 17.7693 -9.07182 15.0042 6.76792 7.1949
lowerback 12.1783 0.581429 -1.94943
upperback 6.02173 0.733867 7.37585
thorax -0.603321 0.240884 8.85301
lowerneck -7.91816 -13.5291 -12.3412
upperneck 26.2278 -19.2435 9.11164
head 12.05 -8.86925 2.65935
rclavicle -1.59028e-014 -6.36111e-015
rhumerus 6.15241 -2.84266 -87.0353
rradius 30.4029
rwrist -18.7185
rhand -18.4107 -20.58
rfingers 7.12502
rthumb 7.87398 -50.4134
lclavicle -1.59028e-014 -6.36111e-015
lhumerus -21.4773 -33.2669 94.7409
lradius 61.622
lwrist 70.0668
lhand -26.1191 50.6477
lfingers 7.12502
lthumb 0.43074 -999.373
rfemur -31.8805 -7.67967 6.23039
rtibia 43.6061
rfoot -19.7409 -9.1906
rtoes -0.784539
lfemur -27.1851 0.487653 -26.0523
ltibia 23.1924
lfoot -6.7488 0.873774
ltoes -13.5955
1029
root -4.01307 17.7666 -9.08427 14.9007 7.01898 7.40631
lowerback 12.4002 0.758327 -1.67168
upperback 6.05246 1.00372 7.44429
thorax -0.734699 0.384661 8.72904
lowerneck -7.69253 -13.7308 -12.1503
upperneck 26.0367 -19.5221 8.99788
head 11.9294 -8.99729 2.55964
rclavicle 0 -2.54444e-014
rhumerus 6.1807 -1.26424 -87.8065
rradius 30.2644
rwrist -18.291
rhand -16.7251 -19.9108
rfingers 7.12502
rthumb 9.50059 -49.6766
lclavicle 0 -2.54444e-014
lhumerus -21.8049 -31.482 94.1208
lradius 60.9401
lwrist 70.6733
lhand -25.4525 50.077
lfingers 7.12502
lthumb 1.07449 -999.946
rfemur -31.3661 -7.49428 6.11985
rtibia 43.0495
rfoot -20.2308 -9.04266
rtoes 0.481722
lfemur -27.0794 0.126038 -25.9633
ltibia 23.0943
lfoot -6.64721 1.03631
ltoes -14.7363
1030
root -4.08178 17.7673 -9.10018 14.8614 7.11738 7.529
lowerback 12.549 0.993476 -1.42968
upperback 6.13123 1.34321 7.53141
thorax -0.785519 0.558672 8.63575
lowerneck -7.51879 -13.926 -12.0497
upperneck 25.8381 -19.819 9.05916
head 11.8508 -9.12164 2.52854
rclavicle -1.59028e-014 6.99722e-014
rhumerus 6.29683 0.207284 -88.6122
rradius 30.179
rwrist -17.7218
rhand -14.8363 -19.6716
rfingers 7.12502
rthumb 11.3227 -49.3459
lclavicle -1.59028e-014 6.99722e-014
lhumerus -22.0718 -29.9575 93.493
lradius 60.2742
lwrist 71.2727
lhand -25.9729 49.5069
lfingers 7.12502
lthumb 0.571918 -1000.51
rfemur -31.0578 -7.28134 6.17636
rtibia 42.6305
rfoot -20.4649 -8.79168
rtoes 1.18496
lfemur -27.1266 -0.0804285 -25.8018
ltibia 23.0052
lfoot -6.47237 1.20253
ltoes -17.3439
1031
root -4.15007 17.759 -9.11789 14.8903 7.28214 7.61522
lowerback 12.6098 1.16762 -1.18976
upperback 6.17699 1.60413 7.69717
thorax -0.810562 0.692433 8.64093
lowerneck -7.27669 -14.1021 -12.203
upperneck 25.6656 -20.0787 9.20298
head 11.8059 -9.2457 2.57262
rclavicle -9.54166e-015 -5.725e-014
rhumerus 6.35358 1.90551 -89.2997
rradius 30.2223
rwrist -17.6719
rhand -13.1147 -19.5137
rfingers 7.12502
rthumb 12.9826 -49.0897
lclavicle -9.54166e-015 -5.725e-014
lhumerus -22.3358 -28.0169 92.8953
lradius 59.8348
lwrist 72.0844
lhand -26.0903 49.7889
lfingers 7.12502
lthumb 0.458547 -1000.23
rfemur -30.8909 -7.19961 6.33896
rtibia 42.3339
rfoot -20.7643 -8.71803
rtoes 0.653554
lfemur -27.2311 -0.161095 -25.6237
ltibia 22.9356
lfoot -6.31224 1.13926
ltoes -18.8634
